<svg width="994" height="660" viewBox="0 0 994 660" fill="none" xmlns="http://www.w3.org/2000/svg">
<path d="M15.936 621.936L5.568 646.32C5.344 646.928 4.992 647.408 4.512 647.76C4.064 648.08 3.568 648.24 3.024 648.24C2.16 648.24 1.52 648 1.104 647.52C0.688 647.04 0.48 646.448 0.48 645.744C0.48 645.456 0.528 645.152 0.624 644.832L12.576 616.128C12.832 615.488 13.216 614.992 13.728 614.64C14.272 614.288 14.848 614.144 15.456 614.208C16.032 614.208 16.56 614.384 17.04 614.736C17.552 615.056 17.92 615.52 18.144 616.128L29.952 644.256C30.112 644.672 30.192 645.056 30.192 645.408C30.192 646.272 29.904 646.96 29.328 647.472C28.784 647.984 28.176 648.24 27.504 648.24C26.928 648.24 26.4 648.064 25.92 647.712C25.472 647.36 25.12 646.88 24.864 646.272L14.544 622.224L15.936 621.936ZM7.056 640.464L9.696 634.944H22.656L23.568 640.464H7.056ZM77.2643 642.384C78.0963 642.384 78.7843 642.656 79.3282 643.2C79.9043 643.712 80.1923 644.384 80.1923 645.216C80.1923 646.016 79.9043 646.688 79.3282 647.232C78.7843 647.744 78.0963 648 77.2643 648H61.6642C60.8322 648 60.1282 647.728 59.5522 647.184C59.0082 646.608 58.7362 645.904 58.7362 645.072V617.328C58.7362 616.496 59.0242 615.808 59.6002 615.264C60.1762 614.688 60.9123 614.4 61.8083 614.4C62.5762 614.4 63.2482 614.688 63.8242 615.264C64.4322 615.808 64.7362 616.496 64.7362 617.328V643.2L63.6802 642.384H77.2643ZM116.169 645.072C116.169 645.904 115.865 646.608 115.257 647.184C114.649 647.728 113.945 648 113.145 648C112.249 648 111.529 647.728 110.985 647.184C110.441 646.608 110.169 645.904 110.169 645.072V617.328C110.169 616.496 110.457 615.808 111.033 615.264C111.609 614.688 112.345 614.4 113.241 614.4C114.009 614.4 114.681 614.688 115.257 615.264C115.865 615.808 116.169 616.496 116.169 617.328V645.072ZM160.204 621.936L149.836 646.32C149.612 646.928 149.26 647.408 148.78 647.76C148.332 648.08 147.836 648.24 147.292 648.24C146.428 648.24 145.788 648 145.372 647.52C144.956 647.04 144.748 646.448 144.748 645.744C144.748 645.456 144.796 645.152 144.892 644.832L156.844 616.128C157.1 615.488 157.484 614.992 157.996 614.64C158.54 614.288 159.116 614.144 159.724 614.208C160.3 614.208 160.828 614.384 161.308 614.736C161.82 615.056 162.188 615.52 162.412 616.128L174.22 644.256C174.38 644.672 174.46 645.056 174.46 645.408C174.46 646.272 174.172 646.96 173.596 647.472C173.052 647.984 172.444 648.24 171.772 648.24C171.196 648.24 170.668 648.064 170.188 647.712C169.74 647.36 169.388 646.88 169.132 646.272L158.812 622.224L160.204 621.936ZM151.324 640.464L153.964 634.944H166.924L167.836 640.464H151.324ZM228.492 614.4C229.26 614.4 229.884 614.656 230.364 615.168C230.844 615.68 231.084 616.32 231.084 617.088V645.072C231.084 645.904 230.796 646.608 230.22 647.184C229.676 647.728 228.988 648 228.156 648C227.74 648 227.308 647.936 226.86 647.808C226.444 647.648 226.124 647.44 225.9 647.184L207.036 623.232L208.284 622.464V645.312C208.284 646.08 208.028 646.72 207.516 647.232C207.036 647.744 206.396 648 205.596 648C204.828 648 204.204 647.744 203.724 647.232C203.244 646.72 203.004 646.08 203.004 645.312V617.328C203.004 616.496 203.276 615.808 203.82 615.264C204.396 614.688 205.1 614.4 205.932 614.4C206.38 614.4 206.844 614.496 207.324 614.688C207.804 614.848 208.156 615.104 208.38 615.456L226.668 638.784L225.852 639.36V617.088C225.852 616.32 226.092 615.68 226.572 615.168C227.052 614.656 227.692 614.4 228.492 614.4ZM285.485 614.4C286.189 614.4 286.877 614.656 287.549 615.168C288.253 615.68 288.605 616.368 288.605 617.232C288.605 617.84 288.381 618.448 287.933 619.056L269.549 642.672L268.973 642.48H285.005C285.837 642.48 286.525 642.736 287.069 643.248C287.645 643.728 287.933 644.384 287.933 645.216C287.933 646.016 287.645 646.688 287.069 647.232C286.525 647.744 285.837 648 285.005 648H263.933C263.101 648 262.381 647.712 261.773 647.136C261.165 646.528 260.861 645.872 260.861 645.168C260.861 644.56 261.085 643.952 261.533 643.344L279.965 619.632L280.397 619.92H265.853C265.021 619.92 264.317 619.664 263.741 619.152C263.197 618.64 262.925 617.968 262.925 617.136C262.925 616.304 263.197 615.648 263.741 615.168C264.317 614.656 265.021 614.4 265.853 614.4H285.485ZM330.722 621.936L320.354 646.32C320.13 646.928 319.778 647.408 319.298 647.76C318.85 648.08 318.354 648.24 317.81 648.24C316.946 648.24 316.306 648 315.89 647.52C315.474 647.04 315.266 646.448 315.266 645.744C315.266 645.456 315.314 645.152 315.41 644.832L327.362 616.128C327.618 615.488 328.002 614.992 328.514 614.64C329.058 614.288 329.634 614.144 330.242 614.208C330.818 614.208 331.346 614.384 331.826 614.736C332.338 615.056 332.706 615.52 332.93 616.128L344.738 644.256C344.898 644.672 344.978 645.056 344.978 645.408C344.978 646.272 344.69 646.96 344.114 647.472C343.57 647.984 342.962 648.24 342.29 648.24C341.714 648.24 341.186 648.064 340.706 647.712C340.258 647.36 339.906 646.88 339.65 646.272L329.33 622.224L330.722 621.936ZM321.842 640.464L324.482 634.944H337.442L338.354 640.464H321.842ZM384.322 648.48C382.082 648.48 380.066 648.208 378.274 647.664C376.482 647.088 374.77 646.096 373.138 644.688C372.722 644.336 372.402 643.936 372.178 643.488C371.954 643.04 371.842 642.592 371.842 642.144C371.842 641.408 372.098 640.768 372.61 640.224C373.154 639.648 373.826 639.36 374.626 639.36C375.234 639.36 375.778 639.552 376.258 639.936C377.474 640.928 378.674 641.68 379.858 642.192C381.074 642.704 382.562 642.96 384.322 642.96C385.506 642.96 386.594 642.784 387.586 642.432C388.578 642.048 389.378 641.552 389.986 640.944C390.594 640.304 390.898 639.584 390.898 638.784C390.898 637.824 390.61 637.008 390.034 636.336C389.458 635.664 388.578 635.104 387.394 634.656C386.21 634.176 384.706 633.808 382.882 633.552C381.154 633.296 379.634 632.912 378.322 632.4C377.01 631.856 375.906 631.184 375.01 630.384C374.146 629.552 373.49 628.592 373.042 627.504C372.594 626.384 372.37 625.136 372.37 623.76C372.37 621.68 372.898 619.904 373.954 618.432C375.042 616.96 376.498 615.84 378.322 615.072C380.146 614.304 382.162 613.92 384.37 613.92C386.45 613.92 388.37 614.24 390.13 614.88C391.922 615.488 393.378 616.272 394.498 617.232C395.426 617.968 395.89 618.816 395.89 619.776C395.89 620.48 395.618 621.12 395.074 621.696C394.53 622.272 393.89 622.56 393.154 622.56C392.674 622.56 392.242 622.416 391.858 622.128C391.346 621.68 390.658 621.264 389.794 620.88C388.93 620.464 388.018 620.128 387.058 619.872C386.098 619.584 385.202 619.44 384.37 619.44C382.994 619.44 381.826 619.616 380.866 619.968C379.938 620.32 379.234 620.8 378.754 621.408C378.274 622.016 378.034 622.72 378.034 623.52C378.034 624.48 378.306 625.28 378.85 625.92C379.426 626.528 380.242 627.024 381.298 627.408C382.354 627.76 383.618 628.08 385.09 628.368C387.01 628.72 388.69 629.136 390.13 629.616C391.602 630.096 392.818 630.72 393.778 631.488C394.738 632.224 395.458 633.168 395.938 634.32C396.418 635.44 396.658 636.816 396.658 638.448C396.658 640.528 396.082 642.32 394.93 643.824C393.778 645.328 392.258 646.48 390.37 647.28C388.514 648.08 386.498 648.48 384.322 648.48Z" fill="#422C9B"/>
<path d="M472.4 648.48C470.16 648.48 468.144 648.208 466.352 647.664C464.56 647.088 462.848 646.096 461.216 644.688C460.8 644.336 460.48 643.936 460.256 643.488C460.032 643.04 459.92 642.592 459.92 642.144C459.92 641.408 460.176 640.768 460.688 640.224C461.232 639.648 461.904 639.36 462.704 639.36C463.312 639.36 463.856 639.552 464.336 639.936C465.552 640.928 466.752 641.68 467.936 642.192C469.152 642.704 470.64 642.96 472.4 642.96C473.584 642.96 474.672 642.784 475.664 642.432C476.656 642.048 477.456 641.552 478.064 640.944C478.672 640.304 478.976 639.584 478.976 638.784C478.976 637.824 478.688 637.008 478.112 636.336C477.536 635.664 476.656 635.104 475.472 634.656C474.288 634.176 472.784 633.808 470.96 633.552C469.232 633.296 467.712 632.912 466.4 632.4C465.088 631.856 463.984 631.184 463.088 630.384C462.224 629.552 461.568 628.592 461.12 627.504C460.672 626.384 460.448 625.136 460.448 623.76C460.448 621.68 460.976 619.904 462.032 618.432C463.12 616.96 464.576 615.84 466.4 615.072C468.224 614.304 470.24 613.92 472.448 613.92C474.528 613.92 476.448 614.24 478.208 614.88C480 615.488 481.456 616.272 482.576 617.232C483.504 617.968 483.968 618.816 483.968 619.776C483.968 620.48 483.696 621.12 483.152 621.696C482.608 622.272 481.968 622.56 481.232 622.56C480.752 622.56 480.32 622.416 479.936 622.128C479.424 621.68 478.736 621.264 477.872 620.88C477.008 620.464 476.096 620.128 475.136 619.872C474.176 619.584 473.28 619.44 472.448 619.44C471.072 619.44 469.904 619.616 468.944 619.968C468.016 620.32 467.312 620.8 466.832 621.408C466.352 622.016 466.112 622.72 466.112 623.52C466.112 624.48 466.384 625.28 466.928 625.92C467.504 626.528 468.32 627.024 469.376 627.408C470.432 627.76 471.696 628.08 473.168 628.368C475.088 628.72 476.768 629.136 478.208 629.616C479.68 630.096 480.896 630.72 481.856 631.488C482.816 632.224 483.536 633.168 484.016 634.32C484.496 635.44 484.736 636.816 484.736 638.448C484.736 640.528 484.16 642.32 483.008 643.824C481.856 645.328 480.336 646.48 478.448 647.28C476.592 648.08 474.576 648.48 472.4 648.48ZM543.233 631.2C543.233 633.6 542.833 635.84 542.033 637.92C541.233 640 540.097 641.84 538.625 643.44C537.185 645.008 535.457 646.24 533.441 647.136C531.457 648.032 529.281 648.48 526.913 648.48C524.545 648.48 522.369 648.032 520.385 647.136C518.401 646.24 516.673 645.008 515.201 643.44C513.761 641.84 512.641 640 511.841 637.92C511.041 635.84 510.641 633.6 510.641 631.2C510.641 628.8 511.041 626.56 511.841 624.48C512.641 622.4 513.761 620.576 515.201 619.008C516.673 617.408 518.401 616.16 520.385 615.264C522.369 614.368 524.545 613.92 526.913 613.92C529.281 613.92 531.457 614.368 533.441 615.264C535.457 616.16 537.185 617.408 538.625 619.008C540.097 620.576 541.233 622.4 542.033 624.48C542.833 626.56 543.233 628.8 543.233 631.2ZM536.993 631.2C536.993 629.056 536.561 627.12 535.697 625.392C534.833 623.632 533.649 622.24 532.145 621.216C530.641 620.192 528.897 619.68 526.913 619.68C524.929 619.68 523.185 620.192 521.681 621.216C520.177 622.24 518.993 623.616 518.129 625.344C517.297 627.072 516.881 629.024 516.881 631.2C516.881 633.344 517.297 635.296 518.129 637.056C518.993 638.784 520.177 640.16 521.681 641.184C523.185 642.208 524.929 642.72 526.913 642.72C528.897 642.72 530.641 642.208 532.145 641.184C533.649 640.16 534.833 638.784 535.697 637.056C536.561 635.296 536.993 633.344 536.993 631.2ZM581.623 648.48C579.383 648.48 577.367 648.208 575.575 647.664C573.783 647.088 572.071 646.096 570.439 644.688C570.023 644.336 569.703 643.936 569.479 643.488C569.255 643.04 569.143 642.592 569.143 642.144C569.143 641.408 569.399 640.768 569.911 640.224C570.455 639.648 571.127 639.36 571.927 639.36C572.535 639.36 573.079 639.552 573.559 639.936C574.775 640.928 575.975 641.68 577.159 642.192C578.375 642.704 579.863 642.96 581.623 642.96C582.807 642.96 583.895 642.784 584.887 642.432C585.879 642.048 586.679 641.552 587.287 640.944C587.895 640.304 588.199 639.584 588.199 638.784C588.199 637.824 587.911 637.008 587.335 636.336C586.759 635.664 585.879 635.104 584.695 634.656C583.511 634.176 582.007 633.808 580.183 633.552C578.455 633.296 576.935 632.912 575.623 632.4C574.311 631.856 573.207 631.184 572.311 630.384C571.447 629.552 570.791 628.592 570.343 627.504C569.895 626.384 569.671 625.136 569.671 623.76C569.671 621.68 570.199 619.904 571.255 618.432C572.343 616.96 573.799 615.84 575.623 615.072C577.447 614.304 579.463 613.92 581.671 613.92C583.751 613.92 585.671 614.24 587.431 614.88C589.223 615.488 590.679 616.272 591.799 617.232C592.727 617.968 593.191 618.816 593.191 619.776C593.191 620.48 592.919 621.12 592.375 621.696C591.831 622.272 591.191 622.56 590.455 622.56C589.975 622.56 589.543 622.416 589.159 622.128C588.647 621.68 587.959 621.264 587.095 620.88C586.231 620.464 585.319 620.128 584.359 619.872C583.399 619.584 582.503 619.44 581.671 619.44C580.295 619.44 579.127 619.616 578.167 619.968C577.239 620.32 576.535 620.8 576.055 621.408C575.575 622.016 575.335 622.72 575.335 623.52C575.335 624.48 575.607 625.28 576.151 625.92C576.727 626.528 577.543 627.024 578.599 627.408C579.655 627.76 580.919 628.08 582.391 628.368C584.311 628.72 585.991 629.136 587.431 629.616C588.903 630.096 590.119 630.72 591.079 631.488C592.039 632.224 592.759 633.168 593.239 634.32C593.719 635.44 593.959 636.816 593.959 638.448C593.959 640.528 593.383 642.32 592.231 643.824C591.079 645.328 589.559 646.48 587.671 647.28C585.815 648.08 583.799 648.48 581.623 648.48ZM632.919 648C632.023 648 631.287 647.728 630.711 647.184C630.135 646.608 629.847 645.904 629.847 645.072V617.232H636.087V645.072C636.087 645.904 635.783 646.608 635.175 647.184C634.599 647.728 633.847 648 632.919 648ZM622.311 619.92C621.479 619.92 620.775 619.664 620.199 619.152C619.655 618.64 619.383 617.968 619.383 617.136C619.383 616.304 619.655 615.648 620.199 615.168C620.775 614.656 621.479 614.4 622.311 614.4H643.623C644.455 614.4 645.143 614.656 645.687 615.168C646.263 615.68 646.551 616.352 646.551 617.184C646.551 618.016 646.263 618.688 645.687 619.2C645.143 619.68 644.455 619.92 643.623 619.92H622.311ZM676.598 614.4H692.678C693.51 614.4 694.198 614.672 694.742 615.216C695.318 615.728 695.606 616.4 695.606 617.232C695.606 618.032 695.318 618.688 694.742 619.2C694.198 619.68 693.51 619.92 692.678 619.92H679.238L679.67 619.104V628.464L679.286 628.08H690.518C691.35 628.08 692.038 628.352 692.582 628.896C693.158 629.408 693.446 630.08 693.446 630.912C693.446 631.712 693.158 632.368 692.582 632.88C692.038 633.36 691.35 633.6 690.518 633.6H679.43L679.67 633.216V642.912L679.286 642.48H692.678C693.51 642.48 694.198 642.768 694.742 643.344C695.318 643.888 695.606 644.528 695.606 645.264C695.606 646.064 695.318 646.72 694.742 647.232C694.198 647.744 693.51 648 692.678 648H676.598C675.766 648 675.062 647.728 674.486 647.184C673.942 646.608 673.67 645.904 673.67 645.072V617.328C673.67 616.496 673.942 615.808 674.486 615.264C675.062 614.688 675.766 614.4 676.598 614.4ZM748.707 614.4C749.475 614.4 750.099 614.656 750.579 615.168C751.059 615.68 751.299 616.32 751.299 617.088V645.072C751.299 645.904 751.011 646.608 750.435 647.184C749.891 647.728 749.203 648 748.371 648C747.955 648 747.523 647.936 747.075 647.808C746.659 647.648 746.339 647.44 746.115 647.184L727.251 623.232L728.499 622.464V645.312C728.499 646.08 728.243 646.72 727.731 647.232C727.251 647.744 726.611 648 725.811 648C725.043 648 724.419 647.744 723.939 647.232C723.459 646.72 723.219 646.08 723.219 645.312V617.328C723.219 616.496 723.491 615.808 724.035 615.264C724.611 614.688 725.315 614.4 726.147 614.4C726.595 614.4 727.059 614.496 727.539 614.688C728.019 614.848 728.371 615.104 728.595 615.456L746.883 638.784L746.067 639.36V617.088C746.067 616.32 746.307 615.68 746.787 615.168C747.267 614.656 747.907 614.4 748.707 614.4ZM786.596 645.072C786.596 645.904 786.292 646.608 785.684 647.184C785.076 647.728 784.372 648 783.572 648C782.676 648 781.956 647.728 781.412 647.184C780.868 646.608 780.596 645.904 780.596 645.072V617.328C780.596 616.496 780.884 615.808 781.46 615.264C782.036 614.688 782.772 614.4 783.668 614.4C784.436 614.4 785.108 614.688 785.684 615.264C786.292 615.808 786.596 616.496 786.596 617.328V645.072ZM830.918 614.4C833.99 614.4 836.278 615.12 837.782 616.56C839.286 618 840.038 620.128 840.038 622.944C840.038 624.448 839.67 625.776 838.934 626.928C838.198 628.048 837.11 628.928 835.67 629.568C834.23 630.176 832.454 630.48 830.342 630.48L830.534 628.32C831.526 628.32 832.662 628.464 833.942 628.752C835.222 629.008 836.454 629.488 837.638 630.192C838.854 630.864 839.846 631.824 840.614 633.072C841.414 634.288 841.814 635.856 841.814 637.776C841.814 639.888 841.462 641.616 840.758 642.96C840.086 644.304 839.19 645.344 838.07 646.08C836.95 646.816 835.75 647.328 834.47 647.616C833.19 647.872 831.958 648 830.774 648H818.822C817.99 648 817.286 647.728 816.71 647.184C816.166 646.608 815.894 645.904 815.894 645.072V617.328C815.894 616.496 816.166 615.808 816.71 615.264C817.286 614.688 817.99 614.4 818.822 614.4H830.918ZM830.054 620.064H821.51L822.134 619.296V627.984L821.558 627.552H830.198C831.126 627.552 831.958 627.248 832.694 626.64C833.43 626.032 833.798 625.152 833.798 624C833.798 622.624 833.446 621.632 832.742 621.024C832.07 620.384 831.174 620.064 830.054 620.064ZM830.438 633.216H821.702L822.134 632.832V642.96L821.654 642.48H830.774C832.246 642.48 833.414 642.096 834.278 641.328C835.142 640.528 835.574 639.344 835.574 637.776C835.574 636.336 835.286 635.296 834.71 634.656C834.134 634.016 833.446 633.616 832.646 633.456C831.846 633.296 831.11 633.216 830.438 633.216ZM887.956 642.384C888.788 642.384 889.476 642.656 890.02 643.2C890.596 643.712 890.884 644.384 890.884 645.216C890.884 646.016 890.596 646.688 890.02 647.232C889.476 647.744 888.788 648 887.956 648H872.356C871.524 648 870.82 647.728 870.244 647.184C869.7 646.608 869.428 645.904 869.428 645.072V617.328C869.428 616.496 869.716 615.808 870.292 615.264C870.868 614.688 871.604 614.4 872.5 614.4C873.268 614.4 873.94 614.688 874.516 615.264C875.124 615.808 875.428 616.496 875.428 617.328V643.2L874.372 642.384H887.956ZM921.389 614.4H937.469C938.301 614.4 938.989 614.672 939.533 615.216C940.109 615.728 940.397 616.4 940.397 617.232C940.397 618.032 940.109 618.688 939.533 619.2C938.989 619.68 938.301 619.92 937.469 619.92H924.029L924.461 619.104V628.464L924.077 628.08H935.309C936.141 628.08 936.829 628.352 937.373 628.896C937.949 629.408 938.237 630.08 938.237 630.912C938.237 631.712 937.949 632.368 937.373 632.88C936.829 633.36 936.141 633.6 935.309 633.6H924.221L924.461 633.216V642.912L924.077 642.48H937.469C938.301 642.48 938.989 642.768 939.533 643.344C940.109 643.888 940.397 644.528 940.397 645.264C940.397 646.064 940.109 646.72 939.533 647.232C938.989 647.744 938.301 648 937.469 648H921.389C920.557 648 919.853 647.728 919.277 647.184C918.733 646.608 918.461 645.904 918.461 645.072V617.328C918.461 616.496 918.733 615.808 919.277 615.264C919.853 614.688 920.557 614.4 921.389 614.4ZM978.809 648.48C976.569 648.48 974.553 648.208 972.761 647.664C970.969 647.088 969.257 646.096 967.625 644.688C967.209 644.336 966.889 643.936 966.665 643.488C966.441 643.04 966.329 642.592 966.329 642.144C966.329 641.408 966.585 640.768 967.097 640.224C967.641 639.648 968.313 639.36 969.113 639.36C969.721 639.36 970.265 639.552 970.745 639.936C971.961 640.928 973.161 641.68 974.345 642.192C975.561 642.704 977.049 642.96 978.809 642.96C979.993 642.96 981.081 642.784 982.073 642.432C983.065 642.048 983.865 641.552 984.473 640.944C985.081 640.304 985.385 639.584 985.385 638.784C985.385 637.824 985.097 637.008 984.521 636.336C983.945 635.664 983.065 635.104 981.881 634.656C980.697 634.176 979.193 633.808 977.369 633.552C975.641 633.296 974.121 632.912 972.809 632.4C971.497 631.856 970.393 631.184 969.497 630.384C968.633 629.552 967.977 628.592 967.529 627.504C967.081 626.384 966.857 625.136 966.857 623.76C966.857 621.68 967.385 619.904 968.441 618.432C969.529 616.96 970.985 615.84 972.809 615.072C974.633 614.304 976.649 613.92 978.857 613.92C980.937 613.92 982.857 614.24 984.617 614.88C986.409 615.488 987.865 616.272 988.985 617.232C989.913 617.968 990.377 618.816 990.377 619.776C990.377 620.48 990.105 621.12 989.561 621.696C989.017 622.272 988.377 622.56 987.641 622.56C987.161 622.56 986.729 622.416 986.345 622.128C985.833 621.68 985.145 621.264 984.281 620.88C983.417 620.464 982.505 620.128 981.545 619.872C980.585 619.584 979.689 619.44 978.857 619.44C977.481 619.44 976.313 619.616 975.353 619.968C974.425 620.32 973.721 620.8 973.241 621.408C972.761 622.016 972.521 622.72 972.521 623.52C972.521 624.48 972.793 625.28 973.337 625.92C973.913 626.528 974.729 627.024 975.785 627.408C976.841 627.76 978.105 628.08 979.577 628.368C981.497 628.72 983.177 629.136 984.617 629.616C986.089 630.096 987.305 630.72 988.265 631.488C989.225 632.224 989.945 633.168 990.425 634.32C990.905 635.44 991.145 636.816 991.145 638.448C991.145 640.528 990.569 642.32 989.417 643.824C988.265 645.328 986.745 646.48 984.857 647.28C983.001 648.08 980.985 648.48 978.809 648.48Z" fill="#422C9B"/>
<path d="M159 562V492H213.9V507.3H178.8V562H159ZM177.4 538V522.7H209.7V538H177.4ZM234.16 562V492H253.96V562H234.16ZM279.047 562V492H298.847V546.3H332.247V562H279.047ZM351.082 562V492H370.882V546.3H404.282V562H351.082ZM463.219 562V492H496.319C504.052 492 510.852 493.433 516.719 496.3C522.585 499.167 527.152 503.2 530.419 508.4C533.752 513.6 535.419 519.8 535.419 527C535.419 534.133 533.752 540.333 530.419 545.6C527.152 550.8 522.585 554.833 516.719 557.7C510.852 560.567 504.052 562 496.319 562H463.219ZM483.019 546.2H495.519C499.519 546.2 502.985 545.467 505.919 544C508.919 542.467 511.252 540.267 512.919 537.4C514.585 534.467 515.419 531 515.419 527C515.419 522.933 514.585 519.467 512.919 516.6C511.252 513.733 508.919 511.567 505.919 510.1C502.985 508.567 499.519 507.8 495.519 507.8H483.019V546.2ZM631.938 563.4C626.404 563.4 621.271 562.533 616.538 560.8C611.804 559 607.704 556.467 604.238 553.2C600.838 549.933 598.171 546.1 596.238 541.7C594.304 537.233 593.338 532.333 593.338 527C593.338 521.667 594.304 516.8 596.238 512.4C598.171 507.933 600.871 504.067 604.338 500.8C607.804 497.533 611.904 495.033 616.638 493.3C621.438 491.5 626.671 490.6 632.338 490.6C638.938 490.6 644.838 491.7 650.038 493.9C655.238 496.1 659.538 499.267 662.938 503.4L650.338 514.8C647.938 512.2 645.338 510.267 642.538 509C639.804 507.667 636.738 507 633.338 507C630.338 507 627.604 507.467 625.138 508.4C622.671 509.333 620.571 510.7 618.838 512.5C617.104 514.233 615.738 516.333 614.738 518.8C613.804 521.2 613.338 523.933 613.338 527C613.338 529.933 613.804 532.633 614.738 535.1C615.738 537.567 617.104 539.7 618.838 541.5C620.571 543.233 622.638 544.6 625.038 545.6C627.504 546.533 630.204 547 633.138 547C636.071 547 638.938 546.533 641.738 545.6C644.538 544.6 647.371 542.933 650.238 540.6L661.338 554.5C657.338 557.367 652.704 559.567 647.438 561.1C642.171 562.633 637.004 563.4 631.938 563.4ZM661.338 554.5L643.838 551.9V525.5H661.338V554.5ZM676.491 562L707.391 492H726.891L757.891 562H737.291L713.091 501.7H720.891L696.691 562H676.491ZM693.391 548.4L698.491 533.8H732.691L737.791 548.4H693.391ZM774.504 562V492H806.504C812.904 492 818.404 493.033 823.004 495.1C827.671 497.167 831.271 500.167 833.804 504.1C836.337 507.967 837.604 512.567 837.604 517.9C837.604 523.167 836.337 527.733 833.804 531.6C831.271 535.467 827.671 538.467 823.004 540.6C818.404 542.667 812.904 543.7 806.504 543.7H785.504L794.304 535.1V562H774.504ZM794.304 537.2L785.504 528.1H805.304C809.437 528.1 812.504 527.2 814.504 525.4C816.571 523.6 817.604 521.1 817.604 517.9C817.604 514.633 816.571 512.1 814.504 510.3C812.504 508.5 809.437 507.6 805.304 507.6H785.504L794.304 498.5V537.2Z" fill="#422C9B"/>
<path d="M282.118 230L244.118 204C229.318 111.2 257.951 33.3333 274.118 6C292.618 25 330.981 67.1443 353.618 88.5C380.118 113.5 395.785 108.5 429.118 106C456.118 103.975 469.285 111.333 473.118 114.5C455.618 129.667 417.718 162.4 406.118 172C391.618 184 392.937 201.28 400.618 213.5C411.618 231 439.618 229.604 457.118 219.5C471.118 211.417 501.284 191.465 514.618 182.5C553.118 217.167 633.436 286.84 641.118 292.5C650.618 299.5 654.118 316 646.118 327C638.449 337.545 622.288 337.744 615.618 333.5C610.118 330 600.118 323 600.118 323C600.118 323 602.118 325 612.118 333.5C626.675 345.873 622.018 358.675 618.118 365.5C612.118 376 595.002 382.5 579.618 370C571.618 363.5 565.618 357.5 565.618 357.5C565.618 357.5 572.118 365.5 577.118 371C584.494 379.114 585.118 393 576.118 402C565.618 412.5 548.618 411 539.618 402C535.013 397.396 530.951 392.667 528.618 390.5C530.785 392.667 533.918 397.6 537.118 402C541.118 407.5 546.618 420 535.118 430C523.618 440 508.618 435.5 504.118 431C500.518 427.4 495.951 422.167 494.118 420C494.118 420 500.618 404 491.618 392.5C481.299 379.315 462.118 382.5 462.118 382.5C462.118 382.5 466.618 363.5 454.618 351.5C441.618 338.5 421.118 342.5 421.118 342.5C425.951 337.167 426.618 316 413.118 303.5C399.307 290.712 378.118 290.5 360.618 306.5C360.618 306.5 319.618 271.5 282.118 230Z" fill="url(#paint0_linear_47_449)"/>
<rect x="319.124" y="353.19" width="95.2844" height="53.3409" rx="25.5" transform="rotate(-40.5994 319.124 353.19)" fill="url(#paint1_linear_47_449)" stroke="#422C9B"/>
<rect x="371.113" y="393.81" width="81.0597" height="46.8586" rx="23.4293" transform="rotate(-40.5994 371.113 393.81)" fill="url(#paint2_linear_47_449)" stroke="#422C9B"/>
<rect x="425.367" y="421.489" width="60.1099" height="37.1712" rx="18.5856" transform="rotate(-40.5994 425.367 421.489)" fill="url(#paint3_linear_47_449)" stroke="#422C9B"/>
<path d="M317.712 278.047L353.789 311.238C354.23 311.643 354.221 312.34 353.765 312.729C348.66 317.084 337.922 326.083 329.618 332.5C319.618 340.227 303.941 335.127 296.118 326C290.118 319 286.618 304 298.618 293.5C306.153 286.907 313.245 280.448 316.471 277.978C316.845 277.692 317.365 277.728 317.712 278.047Z" fill="url(#paint4_linear_47_449)" stroke="#422C9B"/>
<path d="M703.837 1.05851C736.766 52.7473 752.075 118.976 753.645 175.476C753.654 175.806 753.544 176.083 753.277 176.277C747.605 180.397 680.49 229.169 676.659 233C672.986 236.673 644.857 274.5 640.286 280.655C639.937 281.124 639.282 281.17 638.843 280.786L515.747 173.015C515.402 172.713 514.906 172.676 514.528 172.938C503.1 180.864 475.18 199.223 455.159 211C429.659 226 413.659 218.5 407.159 209C399.557 197.889 403.159 186.553 411.659 178.5C421.159 169.5 452.132 143.97 475.659 123C498.659 102.5 523.159 99.5 560.159 99.5C587.159 99.5 596.349 97.2322 616.659 82C632.455 70.153 679.765 24.03 702.299 0.884846C702.747 0.423741 703.491 0.515758 703.837 1.05851Z" fill="url(#paint5_linear_47_449)" stroke="#422C9B"/>
<defs>
<linearGradient id="paint0_linear_47_449" x1="240" y1="66" x2="651" y2="309" gradientUnits="userSpaceOnUse">
<stop stop-color="#CB49EC"/>
<stop offset="1" stop-color="#F75961"/>
</linearGradient>
<linearGradient id="paint1_linear_47_449" x1="319.955" y1="391.2" x2="371.852" y2="327.233" gradientUnits="userSpaceOnUse">
<stop offset="0.225962" stop-color="#222A97"/>
<stop offset="1" stop-color="#396DBB"/>
</linearGradient>
<linearGradient id="paint2_linear_47_449" x1="371.718" y1="427.278" x2="417.71" y2="372.42" gradientUnits="userSpaceOnUse">
<stop offset="0.225962" stop-color="#222A97"/>
<stop offset="1" stop-color="#396DBB"/>
</linearGradient>
<linearGradient id="paint3_linear_47_449" x1="425.637" y1="448.172" x2="462.677" y2="406.922" gradientUnits="userSpaceOnUse">
<stop offset="0.225962" stop-color="#222A97"/>
<stop offset="1" stop-color="#396DBB"/>
</linearGradient>
<linearGradient id="paint4_linear_47_449" x1="291.634" y1="318.673" x2="346.858" y2="276.841" gradientUnits="userSpaceOnUse">
<stop offset="0.225962" stop-color="#222A97"/>
<stop offset="1" stop-color="#396DBB"/>
</linearGradient>
<linearGradient id="paint5_linear_47_449" x1="408.594" y1="197.18" x2="680.539" y2="-38.4725" gradientUnits="userSpaceOnUse">
<stop offset="0.225962" stop-color="#222A97"/>
<stop offset="1" stop-color="#396DBB"/>
</linearGradient>
</defs>
</svg>
