<svg width="515" height="451" viewBox="0 0 515 451" fill="none" xmlns="http://www.w3.org/2000/svg">
<path d="M42.1179 230L4.11784 204C-10.6822 111.2 17.9512 33.3333 34.1178 6C52.6179 25 90.9808 67.1443 113.618 88.5C140.118 113.5 155.785 108.5 189.118 106C216.118 103.975 229.285 111.333 233.118 114.5C215.618 129.667 177.718 162.4 166.118 172C151.618 184 152.937 201.28 160.618 213.5C171.618 231 199.618 229.604 217.118 219.5C231.118 211.417 261.284 191.465 274.618 182.5C313.118 217.167 393.436 286.84 401.118 292.5C410.618 299.5 414.118 316 406.118 327C398.449 337.545 382.288 337.744 375.618 333.5C370.118 330 360.118 323 360.118 323C360.118 323 362.118 325 372.118 333.5C386.675 345.873 382.018 358.675 378.118 365.5C372.118 376 355.002 382.5 339.618 370C331.618 363.5 325.618 357.5 325.618 357.5C325.618 357.5 332.118 365.5 337.118 371C344.494 379.114 345.118 393 336.118 402C325.618 412.5 308.618 411 299.618 402C295.013 397.396 290.951 392.667 288.618 390.5C290.785 392.667 293.918 397.6 297.118 402C301.118 407.5 306.618 420 295.118 430C283.618 440 268.618 435.5 264.118 431C260.518 427.4 255.951 422.167 254.118 420C254.118 420 260.618 404 251.618 392.5C241.299 379.315 222.118 382.5 222.118 382.5C222.118 382.5 226.618 363.5 214.618 351.5C201.618 338.5 181.118 342.5 181.118 342.5C185.951 337.167 186.618 316 173.118 303.5C159.307 290.712 138.118 290.5 120.618 306.5C120.618 306.5 79.6179 271.5 42.1179 230Z" fill="url(#paint0_linear_58_56)"/>
<rect x="79.124" y="353.19" width="95.2844" height="53.3409" rx="25.5" transform="rotate(-40.5994 79.124 353.19)" fill="url(#paint1_linear_58_56)" stroke="#422C9B"/>
<rect x="131.113" y="393.81" width="81.0597" height="46.8586" rx="23.4293" transform="rotate(-40.5994 131.113 393.81)" fill="url(#paint2_linear_58_56)" stroke="#422C9B"/>
<rect x="185.367" y="421.489" width="60.1099" height="37.1712" rx="18.5856" transform="rotate(-40.5994 185.367 421.489)" fill="url(#paint3_linear_58_56)" stroke="#422C9B"/>
<path d="M77.712 278.047L113.789 311.238C114.23 311.643 114.221 312.34 113.765 312.729C108.66 317.084 97.9218 326.083 89.6179 332.5C79.6179 340.227 63.941 335.127 56.118 326C50.118 319 46.618 304 58.6179 293.5C66.1531 286.907 73.2451 280.448 76.471 277.978C76.845 277.692 77.3654 277.728 77.712 278.047Z" fill="url(#paint4_linear_58_56)" stroke="#422C9B"/>
<path d="M463.837 1.05851C496.766 52.7473 512.075 118.976 513.645 175.476C513.654 175.806 513.544 176.083 513.277 176.277C507.605 180.397 440.49 229.169 436.659 233C432.986 236.673 404.857 274.5 400.286 280.655C399.937 281.124 399.282 281.17 398.843 280.786L275.747 173.015C275.402 172.713 274.906 172.676 274.528 172.938C263.1 180.864 235.18 199.223 215.159 211C189.659 226 173.659 218.5 167.159 209C159.557 197.889 163.159 186.553 171.659 178.5C181.159 169.5 212.132 143.97 235.659 123C258.659 102.5 283.159 99.5 320.159 99.5C347.159 99.5 356.349 97.2322 376.659 82C392.455 70.153 439.765 24.03 462.299 0.884846C462.747 0.423741 463.491 0.515758 463.837 1.05851Z" fill="url(#paint5_linear_58_56)" stroke="#422C9B"/>
<defs>
<linearGradient id="paint0_linear_58_56" x1="-2.35109e-06" y1="66" x2="411" y2="309" gradientUnits="userSpaceOnUse">
<stop stop-color="#CB49EC"/>
<stop offset="1" stop-color="#F75961"/>
</linearGradient>
<linearGradient id="paint1_linear_58_56" x1="79.955" y1="391.2" x2="131.852" y2="327.233" gradientUnits="userSpaceOnUse">
<stop offset="0.225962" stop-color="#222A97"/>
<stop offset="1" stop-color="#396DBB"/>
</linearGradient>
<linearGradient id="paint2_linear_58_56" x1="131.717" y1="427.278" x2="177.71" y2="372.42" gradientUnits="userSpaceOnUse">
<stop offset="0.225962" stop-color="#222A97"/>
<stop offset="1" stop-color="#396DBB"/>
</linearGradient>
<linearGradient id="paint3_linear_58_56" x1="185.637" y1="448.172" x2="222.677" y2="406.922" gradientUnits="userSpaceOnUse">
<stop offset="0.225962" stop-color="#222A97"/>
<stop offset="1" stop-color="#396DBB"/>
</linearGradient>
<linearGradient id="paint4_linear_58_56" x1="51.6339" y1="318.673" x2="106.858" y2="276.841" gradientUnits="userSpaceOnUse">
<stop offset="0.225962" stop-color="#222A97"/>
<stop offset="1" stop-color="#396DBB"/>
</linearGradient>
<linearGradient id="paint5_linear_58_56" x1="168.594" y1="197.18" x2="440.539" y2="-38.4725" gradientUnits="userSpaceOnUse">
<stop offset="0.225962" stop-color="#222A97"/>
<stop offset="1" stop-color="#396DBB"/>
</linearGradient>
</defs>
</svg>
