<svg width="711" height="711" viewBox="0 0 711 711" fill="none" xmlns="http://www.w3.org/2000/svg">
<rect width="711" height="711" rx="355.5" fill="#D4FCF4"/>
<path d="M141.118 386L103.118 360C88.3178 267.2 116.951 189.333 133.118 162C151.618 181 189.981 223.144 212.618 244.5C239.118 269.5 254.785 264.5 288.118 262C315.118 259.975 328.285 267.333 332.118 270.5C314.618 285.667 276.718 318.4 265.118 328C250.618 340 251.937 357.28 259.618 369.5C270.618 387 298.618 385.604 316.118 375.5C330.118 367.417 360.284 347.465 373.618 338.5C412.118 373.167 492.436 442.84 500.118 448.5C509.618 455.5 513.118 472 505.118 483C497.449 493.545 481.288 493.744 474.618 489.5C469.118 486 459.118 479 459.118 479C459.118 479 461.118 481 471.118 489.5C485.675 501.873 481.018 514.675 477.118 521.5C471.118 532 454.002 538.5 438.618 526C430.618 519.5 424.618 513.5 424.618 513.5C424.618 513.5 431.118 521.5 436.118 527C443.494 535.114 444.118 549 435.118 558C424.618 568.5 407.618 567 398.618 558C394.013 553.396 389.951 548.667 387.618 546.5C389.785 548.667 392.918 553.6 396.118 558C400.118 563.5 405.618 576 394.118 586C382.618 596 367.618 591.5 363.118 587C359.518 583.4 354.951 578.167 353.118 576C353.118 576 359.618 560 350.618 548.5C340.299 535.315 321.118 538.5 321.118 538.5C321.118 538.5 325.618 519.5 313.618 507.5C300.618 494.5 280.118 498.5 280.118 498.5C284.951 493.167 285.618 472 272.118 459.5C258.307 446.712 237.118 446.5 219.618 462.5C219.618 462.5 178.618 427.5 141.118 386Z" fill="url(#paint0_linear_47_434)"/>
<rect x="178.124" y="509.19" width="95.2844" height="53.3409" rx="25.5" transform="rotate(-40.5994 178.124 509.19)" fill="url(#paint1_linear_47_434)" stroke="#422C9B"/>
<rect x="230.113" y="549.81" width="81.0597" height="46.8586" rx="23.4293" transform="rotate(-40.5994 230.113 549.81)" fill="url(#paint2_linear_47_434)" stroke="#422C9B"/>
<rect x="284.367" y="577.489" width="60.1099" height="37.1712" rx="18.5856" transform="rotate(-40.5994 284.367 577.489)" fill="url(#paint3_linear_47_434)" stroke="#422C9B"/>
<path d="M176.712 434.047L212.789 467.238C213.23 467.643 213.221 468.34 212.765 468.729C207.659 473.084 196.922 482.083 188.618 488.5C178.618 496.227 162.941 491.127 155.118 482C149.118 475 145.618 460 157.618 449.5C165.153 442.907 172.245 436.448 175.471 433.978C175.845 433.692 176.365 433.728 176.712 434.047Z" fill="url(#paint4_linear_47_434)" stroke="#422C9B"/>
<path d="M562.837 157.059C595.766 208.747 611.075 274.976 612.645 331.476C612.654 331.806 612.544 332.083 612.277 332.277C606.605 336.397 539.49 385.169 535.659 389C531.986 392.673 503.857 430.5 499.286 436.655C498.937 437.124 498.282 437.17 497.843 436.786L374.747 329.015C374.402 328.713 373.906 328.676 373.528 328.938C362.1 336.864 334.18 355.223 314.159 367C288.659 382 272.659 374.5 266.159 365C258.557 353.889 262.159 342.553 270.659 334.5C280.159 325.5 311.132 299.97 334.659 279C357.659 258.5 382.159 255.5 419.159 255.5C446.159 255.5 455.349 253.232 475.659 238C491.455 226.153 538.765 180.03 561.299 156.885C561.747 156.424 562.491 156.516 562.837 157.059Z" fill="url(#paint5_linear_47_434)" stroke="#422C9B"/>
<defs>
<linearGradient id="paint0_linear_47_434" x1="99" y1="222" x2="510" y2="465" gradientUnits="userSpaceOnUse">
<stop stop-color="#CB49EC"/>
<stop offset="1" stop-color="#F75961"/>
</linearGradient>
<linearGradient id="paint1_linear_47_434" x1="178.955" y1="547.2" x2="230.852" y2="483.233" gradientUnits="userSpaceOnUse">
<stop offset="0.225962" stop-color="#222A97"/>
<stop offset="1" stop-color="#396DBB"/>
</linearGradient>
<linearGradient id="paint2_linear_47_434" x1="230.717" y1="583.278" x2="276.71" y2="528.42" gradientUnits="userSpaceOnUse">
<stop offset="0.225962" stop-color="#222A97"/>
<stop offset="1" stop-color="#396DBB"/>
</linearGradient>
<linearGradient id="paint3_linear_47_434" x1="284.637" y1="604.172" x2="321.676" y2="562.922" gradientUnits="userSpaceOnUse">
<stop offset="0.225962" stop-color="#222A97"/>
<stop offset="1" stop-color="#396DBB"/>
</linearGradient>
<linearGradient id="paint4_linear_47_434" x1="150.634" y1="474.673" x2="205.858" y2="432.841" gradientUnits="userSpaceOnUse">
<stop offset="0.225962" stop-color="#222A97"/>
<stop offset="1" stop-color="#396DBB"/>
</linearGradient>
<linearGradient id="paint5_linear_47_434" x1="267.594" y1="353.18" x2="539.539" y2="117.527" gradientUnits="userSpaceOnUse">
<stop offset="0.225962" stop-color="#222A97"/>
<stop offset="1" stop-color="#396DBB"/>
</linearGradient>
</defs>
</svg>
